<svg width="57" height="56" viewBox="0 0 57 56" fill="none" xmlns="http://www.w3.org/2000/svg">
<path d="M19.7791 17.8659C19.3886 17.4754 18.7554 17.4754 18.3649 17.8659C17.9744 18.2565 17.9744 18.8896 18.3649 19.2802L27.0848 28L18.3647 36.7202C17.9741 37.1107 17.9741 37.7438 18.3647 38.1344C18.7552 38.5249 19.3884 38.5249 19.7789 38.1344L28.499 29.4142L37.2211 38.1363C37.6116 38.5269 38.2448 38.5269 38.6353 38.1363C39.0258 37.7458 39.0258 37.1126 38.6353 36.7221L29.9132 28L38.6351 19.2782C39.0256 18.8877 39.0256 18.2545 38.6351 17.864C38.2445 17.4734 37.6114 17.4734 37.2208 17.864L28.499 26.5858L19.7791 17.8659ZM47.5 28C47.5 38.4934 38.9934 47 28.5 47C18.0066 47 9.5 38.4934 9.5 28C9.5 17.5066 18.0066 9 28.5 9C38.9934 9 47.5 17.5066 47.5 28Z" fill="#EFEFEF" stroke="black" stroke-width="2" stroke-linecap="round"/>
</svg>
