<svg width="56" height="56" viewBox="0 0 56 56" fill="none" xmlns="http://www.w3.org/2000/svg">
<path d="M19.2791 17.8659C18.8886 17.4754 18.2554 17.4754 17.8649 17.8659C17.4744 18.2565 17.4744 18.8896 17.8649 19.2802L26.5848 28L17.8647 36.7202C17.4741 37.1107 17.4741 37.7438 17.8647 38.1344C18.2552 38.5249 18.8884 38.5249 19.2789 38.1344L27.999 29.4142L36.7211 38.1363C37.1116 38.5269 37.7448 38.5269 38.1353 38.1363C38.5258 37.7458 38.5258 37.1126 38.1353 36.7221L29.4132 28L38.1351 19.2782C38.5256 18.8877 38.5256 18.2545 38.1351 17.864C37.7445 17.4734 37.1114 17.4734 36.7208 17.864L27.999 26.5858L19.2791 17.8659ZM47 28C47 38.4934 38.4934 47 28 47C17.5066 47 9 38.4934 9 28C9 17.5066 17.5066 9 28 9C38.4934 9 47 17.5066 47 28Z" fill="#EFEFEF" stroke="black" stroke-width="2" stroke-linecap="round"/>
</svg>
