<svg width="40" height="40" viewBox="0 0 40 40" fill="none" xmlns="http://www.w3.org/2000/svg">
<path d="M11.2791 9.86594C10.8886 9.47542 10.2554 9.47542 9.86491 9.86594C9.47439 10.2565 9.47439 10.8896 9.86491 11.2802L18.5848 20L9.86467 28.7202C9.47415 29.1107 9.47415 29.7438 9.86467 30.1344C10.2552 30.5249 10.8884 30.5249 11.2789 30.1344L19.999 21.4142L28.7211 30.1363C29.1116 30.5269 29.7448 30.5269 30.1353 30.1363C30.5258 29.7458 30.5258 29.1126 30.1353 28.7221L21.4132 20L30.1351 11.2782C30.5256 10.8877 30.5256 10.2545 30.1351 9.86397C29.7445 9.47345 29.1114 9.47345 28.7208 9.86397L19.999 18.5858L11.2791 9.86594ZM39 20C39 30.4934 30.4934 39 20 39C9.50659 39 1 30.4934 1 20C1 9.50659 9.50659 1 20 1C30.4934 1 39 9.50659 39 20Z" fill="#EFEFEF" stroke="black" stroke-width="2" stroke-linecap="round"/>
</svg>
