<svg width="40" height="40" viewBox="0 0 40 40" fill="none" xmlns="http://www.w3.org/2000/svg">
<path d="M25.1746 34.5312C25.7604 35.117 26.7102 35.117 27.296 34.5312C27.8817 33.9455 27.8817 32.9957 27.296 32.4099L25.1746 34.5312ZM13 20.2353L11.9393 19.1746C11.3536 19.7604 11.3536 20.7102 11.9393 21.296L13 20.2353ZM27.296 8.06066C27.8817 7.47487 27.8817 6.52513 27.296 5.93934C26.7102 5.35355 25.7604 5.35355 25.1746 5.93934L27.296 8.06066ZM27.296 32.4099L14.0607 19.1746L11.9393 21.296L25.1746 34.5312L27.296 32.4099ZM14.0607 21.296L27.296 8.06066L25.1746 5.93934L11.9393 19.1746L14.0607 21.296Z" fill="black"/>
</svg>
